<?xml version="1.0" encoding="UTF-8"?>
<svg id="Layer_1" xmlns="http://www.w3.org/2000/svg" version="1.1" xmlns:xlink="http://www.w3.org/1999/xlink" viewBox="0 0 1200 630">
  <!-- Generator: Adobe Illustrator 30.8.1, SVG Export Plug-In . SVG Version: 2.1.4 Build 1)  -->
  <defs>
    <style>
      .st0, .st1 {
        fill: #e9a674;
      }

      .st2, .st3, .st4 {
        fill: #7b946f;
      }

      .st3 {
        font-family: Gadugi, Gadugi;
      }

      .st5 {
        fill: #53665a;
        font-family: ArialMT, Arial;
        font-size: 30px;
      }

      .st5, .st4, .st1, .st6 {
        isolation: isolate;
      }

      .st4 {
        opacity: .2;
      }

      .st1 {
        opacity: .2;
      }

      .st7, .st6, .st8 {
        fill: #224833;
      }

      .st9 {
        font-size: 164.5px;
      }

      .st6 {
        font-family: Georgia-Bold, Georgia;
        font-size: 61px;
      }

      .st6, .st8 {
        font-weight: 700;
      }

      .st8 {
        font-family: Gadugi-Bold, Gadugi;
      }

      .st10 {
        fill: url(#linear-gradient);
      }
    </style>
    <linearGradient id="linear-gradient" x1="60" y1="990.4" x2="61" y2="989.4" gradientTransform="translate(-71940 623971) scale(1200 -630)" gradientUnits="userSpaceOnUse">
      <stop offset="0" stop-color="#fbf8f1"/>
      <stop offset="1" stop-color="#e7efe4"/>
    </linearGradient>
  </defs>
  <rect class="st10" width="1200" height="630"/>
  <circle class="st1" cx="1050" cy="90" r="260"/>
  <circle class="st4" cx="84" cy="590" r="230"/>
  <text class="st6" transform="translate(94 335)"><tspan x="0" y="0">Chaque jour compte,</tspan></text>
  <text class="st6" transform="translate(94 410)"><tspan x="0" y="0">dès le premier.</tspan></text>
  <text class="st5" transform="translate(98 505)"><tspan x="0" y="0">Le cahier de transmission numérique pensé pour les MAM.</tspan></text>
  <text class="st9" transform="translate(271.9 192.9)"><tspan class="st8" x="0" y="0">Nid</tspan><tspan class="st3" x="278.5" y="0">ilo</tspan></text>
  <path class="st2" d="M213.3,57.4c-1.9,0-12.3-.4-17.5,6.4-5.4,7.1-2.3,17.1-1.5,19.6,2.4,6.9,7.4,10,12.3,15.6,5.4,6.3,6.6,8.2,8.1,10.7,0,0,3.8,6.2,5.8,12.9,7.8,16.5-11.7,32-8.2,39.9,6.3,2,36.1-3.8,40.4-51.3-4.3-36.1-26.5-53.9-39.4-53.9Z"/>
  <path class="st2" d="M224.8,192.7c1-1.6,6.8-10.2,3.7-18.2-3.2-8.3-13.3-11-15.9-11.5-7.1-1.5-12.3,1.1-19.8,2.2-8.2,1.3-10.5,1.3-13.3,1.3,0,0-7.3,0-14-1.8-18.1-2-21.1-26.8-29.7-27.9-5,4.3-15.7,32.7,22.4,61.3,33,15.3,59.9,5.7,66.5-5.3Z"/>
  <path class="st7" d="M103.3,137.5c1,1.6,6.2,10.6,14.8,11.4,8.9.8,15.7-7.2,17.4-9.3,4.5-5.7,4.5-11.6,6.7-18.7,2.4-7.9,3.4-10,4.7-12.5,0,0,3.3-6.5,7.8-11.8,9.7-15.4,33.3-7.2,38.1-14.4-1.7-6.4-22.5-28.5-64.9-6.8-28.2,23-31.4,51.3-24.5,62.1Z"/>
  <circle class="st0" cx="182.2" cy="125.7" r="25.9"/>
</svg>