<svg xmlns="http://www.w3.org/2000/svg" width="1200" height="630" viewBox="0 0 1200 630" role="img" aria-labelledby="title desc">
  <title id="title">Nidilo</title>
  <desc id="desc">Le cahier de transmission numérique pensé pour les MAM.</desc>
  <defs>
    <linearGradient id="bg" x1="0" y1="0" x2="1" y2="1">
      <stop stop-color="#fbf8f1"/>
      <stop offset="1" stop-color="#e7efe4"/>
    </linearGradient>
  </defs>
  <rect width="1200" height="630" fill="url(#bg)"/>
  <circle cx="1050" cy="90" r="260" fill="#e9a674" opacity=".18"/>
  <circle cx="84" cy="590" r="230" fill="#7b946f" opacity=".17"/>
  <g transform="translate(94 88)">
    <rect width="132" height="132" rx="42" fill="#224833"/>
    <path d="M31 76c0-26 16-46 36-46s36 20 36 46v28H31z" fill="#f8f5ee"/>
    <path d="M48 63c7-16 29-17 37-1" fill="none" stroke="#e9a674" stroke-width="8" stroke-linecap="round"/>
    <circle cx="54" cy="77" r="4.5" fill="#224833"/><circle cx="81" cy="77" r="4.5" fill="#224833"/>
    <path d="M57 91c7 6 15 6 22 0" fill="none" stroke="#224833" stroke-width="4" stroke-linecap="round"/>
  </g>
  <text x="258" y="182" fill="#224833" font-family="Arial, sans-serif" font-size="104" font-weight="700">Nidilo</text>
  <text x="94" y="335" fill="#224833" font-family="Georgia, serif" font-size="61" font-weight="600">Le quotidien des enfants,</text>
  <text x="94" y="410" fill="#224833" font-family="Georgia, serif" font-size="61" font-weight="600">simplement partagé.</text>
  <text x="98" y="505" fill="#53665a" font-family="Arial, sans-serif" font-size="30">Le cahier de transmission numérique pensé pour les MAM.</text>
</svg>
